<svg xmlns="http://www.w3.org/2000/svg" viewBox="0 0 129.34 51.03"><defs><style>.cls-1{fill:#00a499;}</style></defs><title>Datový zdroj 30</title><g id="Vrstva_2" data-name="Vrstva 2"><g id="Vrstva_1-2" data-name="Vrstva 1"><rect class="cls-1" x="0.38" y="21.99" width="1.6" height="18.68"/><rect class="cls-1" x="18.82" y="27.11" width="1.6" height="18.69"/><rect class="cls-1" x="24.97" y="21.99" width="1.6" height="18.68"/><rect class="cls-1" x="12.67" y="32.24" width="1.6" height="18.68"/><rect class="cls-1" x="6.52" y="27.11" width="1.6" height="18.68"/><path class="cls-1" d="M8.07,3.5,5.37,13.58H2.71L0,3.5H1.94l2.13,8.57L6.19,3.5Z"/><path class="cls-1" d="M17.11,10.81a2.64,2.64,0,0,1-.94,2.13,3.76,3.76,0,0,1-2.53.79,7.13,7.13,0,0,1-1.84-.25,6.53,6.53,0,0,1-1.71-.7l.75-1.52a7.23,7.23,0,0,0,1.45.65,4.72,4.72,0,0,0,1.38.21,1.88,1.88,0,0,0,1.14-.31,1.11,1.11,0,0,0,.06-1.65,5.64,5.64,0,0,0-1.53-.83A13.32,13.32,0,0,1,12,8.72a4,4,0,0,1-.7-.51,2.53,2.53,0,0,1-.67-.91,2.71,2.71,0,0,1-.22-1.13,2.57,2.57,0,0,1,.9-2,3.52,3.52,0,0,1,2.38-.79,6.36,6.36,0,0,1,1.68.23A7.4,7.4,0,0,1,17,4.21L16.3,5.72A8.1,8.1,0,0,0,15,5.16,4.4,4.4,0,0,0,13.73,5a1.59,1.59,0,0,0-1,.29,1,1,0,0,0-.37.78,1.08,1.08,0,0,0,.35.78,5.92,5.92,0,0,0,1.55.87c.57.26,1,.47,1.26.62a3.84,3.84,0,0,1,.69.5,2.46,2.46,0,0,1,.68.88A2.85,2.85,0,0,1,17.11,10.81ZM11.18.17h1.6l.92,1.06L14.62.17h1.55l-1.75,2.3H12.94Z"/><path class="cls-1" d="M20,3.5h3.31a4.06,4.06,0,0,1,2.44.65A2.16,2.16,0,0,1,26.64,6a2.36,2.36,0,0,1-.4,1.38,2.4,2.4,0,0,1-1.12.9,2.8,2.8,0,0,1,1.43.88A2.27,2.27,0,0,1,27,10.64a2.64,2.64,0,0,1-.94,2.15,3.77,3.77,0,0,1-2.52.79H20Zm4.7,2.78a1.07,1.07,0,0,0-.4-.91,2,2,0,0,0-1.22-.3h-1.2V7.64h1.2a1.82,1.82,0,0,0,1.21-.35A1.23,1.23,0,0,0,24.7,6.28Zm.4,4.26a1.21,1.21,0,0,0-.46-1.06,2.5,2.5,0,0,0-1.45-.33H21.88V12h1.4a2.18,2.18,0,0,0,1.37-.36A1.37,1.37,0,0,0,25.1,10.54Z"/><path class="cls-1" d="M42.86,4.82v8.73H41.31V4.82h-3V3.47h7.62V4.82Z"/><path class="cls-1" d="M50.12,12.21h4.55v1.34H48.55V3.47h6.12V4.82H50.12V7.76H54V9.11H50.12Z"/><path class="cls-1" d="M61.49,13.7a3.7,3.7,0,0,1-3.1-1.34,6.14,6.14,0,0,1-1.07-3.9,5.83,5.83,0,0,1,1.11-3.78,3.76,3.76,0,0,1,3.08-1.37,5.21,5.21,0,0,1,2.83.81l-.72,1.23a4.09,4.09,0,0,0-1-.48,3.4,3.4,0,0,0-1-.16,2.24,2.24,0,0,0-1.95.94,5,5,0,0,0-.65,2.81,5.24,5.24,0,0,0,.64,2.9,2.17,2.17,0,0,0,2,1,3.48,3.48,0,0,0,1.1-.16,5,5,0,0,0,1.15-.56l.67,1.15a5.11,5.11,0,0,1-3,.95Z"/><path class="cls-1" d="M68.76,9v4.58H67.19V3.47h1.57V7.62h3.69V3.47H74V13.55H72.45V9Z"/><path class="cls-1" d="M83.93,13.55H82l-3.31-8v8H77.32V3.47h1.89l3.33,8v-8h1.39Z"/><path class="cls-1" d="M93.45,12.21v1.34h-6.7V12.21h2.58V4.82H86.79V3.47H93.4V4.82H90.87v7.39Z"/><path class="cls-1" d="M100,13.7a3.7,3.7,0,0,1-3.1-1.34,6.14,6.14,0,0,1-1.07-3.9A5.78,5.78,0,0,1,97,4.68,3.74,3.74,0,0,1,100,3.31a5.21,5.21,0,0,1,2.83.81l-.72,1.23a4.09,4.09,0,0,0-1-.48,3.35,3.35,0,0,0-1-.16,2.24,2.24,0,0,0-2,.94,5,5,0,0,0-.65,2.81,5.24,5.24,0,0,0,.64,2.9,2.19,2.19,0,0,0,2,1,3.48,3.48,0,0,0,1.1-.16,5,5,0,0,0,1.15-.56l.67,1.15a5.05,5.05,0,0,1-1.41.71A5.18,5.18,0,0,1,100,13.7Z"/><path class="cls-1" d="M107.39,10.87v2.68h-1.57V3.47h1.57V8.79l3.87-5.32H113l-3,4.1,3.31,6h-1.82l-2.6-4.73Z"/><path class="cls-1" d="M122.77,13.55h-1.6l-.75-2.68H117l-.75,2.68h-1.54L117.6,3.47h2.23Zm-4.08-9-1.38,5h2.75Zm.72-2.19H118L119.64,0l1.2.89Z"/><path class="cls-1" d="M42.12,31a1.8,1.8,0,0,0,1.36-.5A1.91,1.91,0,0,0,44,29.07V22.13h1.52v6.94a3.18,3.18,0,0,1-.93,2.39,3.34,3.34,0,0,1-2.44.9,3.46,3.46,0,0,1-2.49-.9,3.19,3.19,0,0,1-.94-2.39V22.13h1.57v6.94a2,2,0,0,0,.49,1.41A1.81,1.81,0,0,0,42.12,31Z"/><path class="cls-1" d="M55.39,32.21H53.47l-3.31-8v8H48.78V22.13h1.89L54,30.19V22.13h1.39Z"/><path class="cls-1" d="M64.91,30.87v1.34h-6.7V30.87h2.58V23.48H58.25V22.13h6.61v1.35H62.33v7.39Z"/><path class="cls-1" d="M74.48,22.13,71.66,32.21H69.44L66.62,22.13h1.64L70.57,31l2.32-8.85Z"/><path class="cls-1" d="M78.65,30.87H83.2v1.34H77.07V22.13H83.2v1.35H78.65v2.94h3.87v1.36H78.65Z"/><path class="cls-1" d="M87.84,28.09v4.12H86.27V22.13h3.44a3.66,3.66,0,0,1,2.45.78,2.69,2.69,0,0,1,.91,2.14,3,3,0,0,1-.52,1.8,2.81,2.81,0,0,1-1.5,1l2.39,4.34H91.67l-2.19-4.12Zm3.64-3A1.53,1.53,0,0,0,91,23.9a1.94,1.94,0,0,0-1.32-.42H87.84v3.25h1.85A1.9,1.9,0,0,0,91,26.31,1.56,1.56,0,0,0,91.48,25.09Z"/><path class="cls-1" d="M102.31,30.87v1.34h-6.6v-.89l4.56-7.84H95.79V22.13h6.44V23l-4.54,7.84Z"/><path class="cls-1" d="M111.34,30.87v1.34h-6.7V30.87h2.58V23.48h-2.54V22.13h6.61v1.35h-2.53v7.39Z"/><path class="cls-1" d="M117.69,23.48v8.73h-1.55V23.48h-3V22.13h7.62v1.35Z"/><path class="cls-1" d="M129.34,32.21h-1.6L127,29.53h-3.47l-.75,2.68h-1.54l2.94-10.08h2.23Zm-4.08-9-1.38,5h2.75Z"/><path class="cls-1" d="M45.86,45.88a6.36,6.36,0,0,1-1,3.82,3.66,3.66,0,0,1-5.63,0,6.7,6.7,0,0,1-.94-3.93,6.37,6.37,0,0,1,1-3.82,3.66,3.66,0,0,1,5.62,0A6.74,6.74,0,0,1,45.86,45.88Zm-5.92-.09a6.21,6.21,0,0,0,.52,2.92,1.91,1.91,0,0,0,3.27,0,6,6,0,0,0,.52-2.84,6.3,6.3,0,0,0-.52-2.9,1.92,1.92,0,0,0-3.28,0A6,6,0,0,0,39.94,45.79Z"/><path class="cls-1" d="M54.78,48.18a2.56,2.56,0,0,1-.92,2.07,3.68,3.68,0,0,1-2.47.78,7.14,7.14,0,0,1-1.79-.25,6.24,6.24,0,0,1-1.64-.7l.66-1.23a7,7,0,0,0,1.43.64,5,5,0,0,0,1.37.2,2,2,0,0,0,1.31-.37,1.25,1.25,0,0,0,.47-1,1.24,1.24,0,0,0-.38-.88,5.7,5.7,0,0,0-1.65-.94,13.24,13.24,0,0,1-1.26-.6,5.71,5.71,0,0,1-.68-.48,2.71,2.71,0,0,1-.67-.9,2.77,2.77,0,0,1-.22-1.1,2.51,2.51,0,0,1,.87-2,3.37,3.37,0,0,1,2.29-.76,6.32,6.32,0,0,1,1.62.21,7.07,7.07,0,0,1,1.54.64L54,42.72a6.7,6.7,0,0,0-1.31-.55A4.38,4.38,0,0,0,51.52,42a1.79,1.79,0,0,0-1.18.36,1.19,1.19,0,0,0-.43.95,1.21,1.21,0,0,0,.39.88,6.22,6.22,0,0,0,1.65.94c.56.26,1,.46,1.25.61a3.7,3.7,0,0,1,.68.48,2.39,2.39,0,0,1,.68.89A2.58,2.58,0,0,1,54.78,48.18Z"/><path class="cls-1" d="M61.11,42.15v8.72H59.56V42.15h-3V40.79h7.62v1.36Z"/><path class="cls-1" d="M68.34,46.75v4.12H66.77V40.79h3.44a3.64,3.64,0,0,1,2.45.78,2.66,2.66,0,0,1,.91,2.15,3,3,0,0,1-.52,1.79,2.76,2.76,0,0,1-1.5,1l2.39,4.34H72.17L70,46.75Zm3.64-3a1.51,1.51,0,0,0-.47-1.18,1.94,1.94,0,0,0-1.32-.42H68.34V45.4h1.85A1.93,1.93,0,0,0,71.52,45,1.58,1.58,0,0,0,72,43.75Z"/><path class="cls-1" d="M84.06,50.87h-1.6l-.75-2.67H78.25l-.75,2.67H76L78.9,40.79h2.22Zm-4.07-9-1.39,5h2.76Z"/><path class="cls-1" d="M92.73,40.79,89.92,50.87H87.69L84.88,40.79h1.63l2.32,8.85,2.32-8.85Z"/><path class="cls-1" d="M101.66,50.87h-1.6l-.75-2.67H95.84l-.74,2.67H93.56L96.5,40.79h2.22Zm-4.07-9-1.39,5H99Z"/></g></g></svg>